<?xml version="1.0" encoding="UTF-8" standalone="no"?>
<svg
   xmlns:dc="http://purl.org/dc/elements/1.1/"
   xmlns:cc="http://creativecommons.org/ns#"
   xmlns:rdf="http://www.w3.org/1999/02/22-rdf-syntax-ns#"
   xmlns:svg="http://www.w3.org/2000/svg"
   xmlns="http://www.w3.org/2000/svg"
   viewBox="0 0 512 512"
   height="512"
   width="512"
   xml:space="preserve"
   id="svg2"
   version="1.1"><metadata
     id="metadata8"><rdf:RDF><cc:Work
         rdf:about=""><dc:format>image/svg+xml</dc:format><dc:type
           rdf:resource="http://purl.org/dc/dcmitype/StillImage" /></cc:Work></rdf:RDF></metadata><defs
     id="defs6" /><g
     transform="matrix(1.3333333,0,0,-1.3333333,0,512)"
     id="g10"><g
       transform="scale(0.1)"
       id="g12"><path
         id="path14"
         style="fill:#000000;fill-opacity:1;fill-rule:nonzero;stroke:none"
         d="m 2277.66,1079.57 c -92.15,92.11 -242.04,92.11 -334.14,0 L 1726.45,862.5 c -4.34,-4.34 -10.32,-6.289 -16.06,-5.352 -285,49.102 -474.73,203.632 -562.46,291.372 -203.442,203.43 -269.809,439.49 -291.211,562.07 -1.059,5.97 0.902,12.11 5.191,16.44 l 217.07,217.03 c 91.72,90.94 90.59,244.42 0,334.14 l -312.929,312.93 c -92.102,92.11 -241.992,92.15 -334.141,0 L 187.34,2346.56 C 14.4492,2173.67 -45.1602,1913.59 35.4297,1683.95 170.98,1297.81 384.691,957.07 670.59,671.172 839.059,502.699 1029.73,357.34 1237.27,239.18 c 26.99,-15.391 61.32,-5.942 76.71,21.05 15.36,27 5.94,61.372 -21.05,76.719 C 1094.14,450.16 911.52,589.379 750.16,750.738 476.25,1024.61 271.52,1351.13 141.602,1721.21 75.2305,1910.27 124.41,2124.53 266.91,2267.03 l 244.57,244.57 c 47.43,48.01 127.5,47.97 175.04,0 l 312.89,-312.93 c 48.29,-48.24 48.29,-126.76 0,-175.04 L 782.379,1806.6 c -30.188,-30.23 -43.859,-73.36 -36.52,-115.39 23.75,-135.66 97.192,-396.91 322.541,-622.26 97.15,-97.149 307.3,-268.29 622.93,-322.661 41.68,-7.148 84.57,6.52 114.69,36.641 L 2023.09,1000 c 48.24,48.24 126.75,48.28 175,0 l 312.93,-312.93 c 47.61,-47.148 47.93,-127.66 0,-175.039 l -244.57,-244.57 c -142.5,-142.5 -356.72,-191.6407 -545.79,-125.313 -67.03,23.551 -133.94,50.153 -198.94,79.102 -28.36,12.621 -61.6,-0.121 -74.26,-28.52 -12.66,-28.351 0.12,-61.64 28.48,-74.25 67.77,-30.1987 137.58,-57.9292 207.46,-82.4605 228.51,-80.2812 489.3,-21.4492 662.62,151.8715 L 2590.59,432.5 c 91.71,90.898 90.58,244.449 0,334.141 z m 1259.22,2479.81 c -252.27,244.64 -620.86,338.12 -962,243.86 -29.96,-8.24 -47.54,-39.22 -39.26,-69.18 8.29,-29.96 39.26,-47.5 69.22,-39.26 302.86,83.68 629.96,0.82 853.68,-216.21 171.64,-166.48 267.14,-389.68 268.94,-628.51 1.84,-238.91 -90.19,-463.52 -259.1,-632.42 -137.19,-137.19 -310.94,-223.83 -502.54,-250.55 -185.39,-25.9 -377.81,8.36 -541.76,96.48 -24.72,13.32 -54.06,15.9 -80.43,7.07 l -411.09,-137.54 137.58,411.1 c 8.79,26.37 6.25,55.66 -7.07,80.39 -88.75,165.12 -122.85,358.83 -96.02,545.39 27.74,192.93 116.13,367.34 255.63,504.45 47.65,46.84 100.54,88.17 157.18,122.85 26.53,16.22 34.85,50.86 18.6,77.35 -16.21,26.48 -50.82,34.8 -77.35,18.59 -63.9,-39.1 -123.55,-85.74 -177.3,-138.55 -157.23,-154.53 -256.84,-351.17 -288.13,-568.67 -30,-208.75 7.7,-425.47 106.18,-610.75 l -143.17,-427.85 c -12.26,-36.68 -2.89,-76.4 24.45,-103.75 27.47,-27.46 67.5,-36.56 103.72,-24.41 l 427.85,143.16 c 184.02,-97.81 399.26,-135.7 606.68,-106.76 216.01,30.16 411.91,127.82 566.52,282.43 190.39,190.39 294.14,443.55 292.07,712.81 -2.03,269.22 -109.69,520.82 -303.08,708.48 z M 2919.14,3394.8 h -152.38 c -59.06,0 -107.07,-48 -107.07,-107.07 v -261.21 h -261.25 c -59.03,0 -107.03,-48.04 -107.03,-107.07 v -152.38 c 0,-59.02 48,-107.07 107.03,-107.07 h 261.25 v -261.21 c 0,-59.02 48.01,-107.07 107.03,-107.07 h 152.42 c 59.02,0 107.03,48.05 107.03,107.07 V 2660 h 261.25 c 59.03,0 107.07,48.05 107.07,107.07 v 152.38 c 0,59.03 -48.04,107.07 -107.07,107.07 h -261.25 v 261.21 c 0.04,59.07 -48.01,107.07 -107.03,107.07 z m 362.81,-480.82 V 2772.5 h -286.6 c -45.04,0 -81.68,-36.6 -81.68,-81.64 v -286.64 h -141.48 v 286.64 c 0,45.04 -36.6,81.64 -81.64,81.64 h -286.64 v 141.48 h 286.64 c 45.04,0 81.64,36.64 81.64,81.68 v 286.64 h 141.48 v -286.64 c 0,-45.04 36.64,-81.68 81.68,-81.68 z" /></g></g></svg>